<?xml version="1.0" standalone="no"?>
<!DOCTYPE svg PUBLIC "-//W3C//DTD SVG 20010904//EN"
 "http://www.w3.org/TR/2001/REC-SVG-20010904/DTD/svg10.dtd">
<svg version="1.0" xmlns="http://www.w3.org/2000/svg"
 width="256.000000pt" height="256.000000pt" viewBox="0 0 256.000000 256.000000"
 preserveAspectRatio="xMidYMid meet">
<metadata>
Created by potrace 1.14, written by Peter Selinger 2001-2017
</metadata>
<g transform="translate(0.000000,256.000000) scale(0.100000,-0.100000)"
fill="#000000" stroke="none">
<path d="M1067 2353 c-7 -15 0 -118 12 -158 13 -46 31 -69 84 -109 l37 -28 0
-434 c0 -426 0 -433 -20 -439 -42 -13 -60 -45 -60 -107 l0 -58 -75 0 c-53 0
-75 -4 -76 -12 -1 -7 -2 -75 -3 -151 l-1 -139 -155 0 c-172 0 -228 -10 -330
-60 -81 -39 -174 -131 -218 -215 -31 -58 -61 -168 -62 -220 l0 -23 1080 0
1080 0 0 23 c-1 52 -31 162 -62 218 -61 117 -148 193 -279 245 -63 25 -162 34
-380 34 l-46 0 1 148 1 147 -78 3 -77 3 0 49 c0 63 -16 97 -51 109 l-29 10 0
438 0 438 33 18 c18 10 47 39 65 65 29 42 32 56 35 127 l2 80 -212 3 c-116 1
-213 -1 -216 -5z m-26 -1850 c13 -16 12 -17 -3 -4 -10 7 -18 15 -18 17 0 8 8
3 21 -13z m40 -40 c13 -16 12 -17 -3 -4 -10 7 -18 15 -18 17 0 8 8 3 21 -13z
m419 13 c0 -2 -8 -10 -17 -17 -16 -13 -17 -12 -4 4 13 16 21 21 21 13z m-341
-63 c2 -2 0 -3 -6 -3 -6 0 -21 9 -34 21 l-24 20 30 -17 c17 -10 32 -19 34 -21z
m296 27 c-3 -5 -16 -15 -28 -21 -19 -9 -19 -8 3 10 28 23 34 26 25 11z m-80
-40 c-3 -5 -12 -10 -18 -10 -7 0 -6 4 3 10 19 12 23 12 15 0z m-67 -17 c-10
-2 -26 -2 -35 0 -10 3 -2 5 17 5 19 0 27 -2 18 -5z"/>
</g>
</svg>
